<mxfile host="app.diagrams.net" modified="2020-09-29T15:11:51.250Z" agent="5.0 (X11)" etag="GQOhXIAui3P-mMWZ_g-j" version="13.7.6" type="github">
  <diagram id="C5RBs43oDa-KdzZeNtuy" name="Page-1">
    <mxGraphModel dx="1314" dy="847" grid="1" gridSize="10" guides="1" tooltips="1" connect="1" arrows="1" fold="1" page="1" pageScale="1" pageWidth="827" pageHeight="1169" math="0" shadow="0">
      <root>
        <mxCell id="WIyWlLk6GJQsqaUBKTNV-0" />
        <mxCell id="WIyWlLk6GJQsqaUBKTNV-1" parent="WIyWlLk6GJQsqaUBKTNV-0" />
        <mxCell id="K_dnV9f0_s6PBJcPADAx-151" value="" style="endArrow=none;dashed=1;html=1;strokeWidth=2;align=center;fillColor=#fff2cc;strokeColor=#d6b656;" edge="1" parent="WIyWlLk6GJQsqaUBKTNV-1">
          <mxGeometry width="50" height="50" relative="1" as="geometry">
            <mxPoint x="120" y="1000" as="sourcePoint" />
            <mxPoint x="720" y="920" as="targetPoint" />
          </mxGeometry>
        </mxCell>
        <mxCell id="K_dnV9f0_s6PBJcPADAx-35" value="" style="edgeStyle=orthogonalEdgeStyle;rounded=0;orthogonalLoop=1;jettySize=auto;html=1;endArrow=block;endFill=1;strokeColor=#b85450;strokeWidth=2;fillColor=#f8cecc;" edge="1" parent="WIyWlLk6GJQsqaUBKTNV-1" source="WIyWlLk6GJQsqaUBKTNV-3" target="WIyWlLk6GJQsqaUBKTNV-6">
          <mxGeometry relative="1" as="geometry" />
        </mxCell>
        <mxCell id="WIyWlLk6GJQsqaUBKTNV-3" value="&lt;b&gt;Reference libraries&lt;/b&gt;" style="rounded=1;whiteSpace=wrap;html=1;fontSize=12;glass=0;strokeWidth=2;shadow=0;fillColor=#f8cecc;strokeColor=#b85450;" parent="WIyWlLk6GJQsqaUBKTNV-1" vertex="1">
          <mxGeometry x="40" y="40" width="120" height="40" as="geometry" />
        </mxCell>
        <mxCell id="K_dnV9f0_s6PBJcPADAx-55" value="" style="edgeStyle=orthogonalEdgeStyle;rounded=0;orthogonalLoop=1;jettySize=auto;html=1;endArrow=block;endFill=1;endSize=6;strokeColor=#000000;strokeWidth=2;align=center;" edge="1" parent="WIyWlLk6GJQsqaUBKTNV-1" source="WIyWlLk6GJQsqaUBKTNV-6" target="K_dnV9f0_s6PBJcPADAx-37">
          <mxGeometry relative="1" as="geometry" />
        </mxCell>
        <mxCell id="K_dnV9f0_s6PBJcPADAx-56" value="" style="edgeStyle=orthogonalEdgeStyle;rounded=0;orthogonalLoop=1;jettySize=auto;html=1;endArrow=block;endFill=1;endSize=6;strokeColor=#000000;strokeWidth=2;align=center;" edge="1" parent="WIyWlLk6GJQsqaUBKTNV-1" source="WIyWlLk6GJQsqaUBKTNV-6" target="K_dnV9f0_s6PBJcPADAx-39">
          <mxGeometry relative="1" as="geometry" />
        </mxCell>
        <mxCell id="WIyWlLk6GJQsqaUBKTNV-6" value="&lt;div&gt;Data come &lt;br&gt;&lt;/div&gt;&lt;div&gt;from NCBI ?&lt;/div&gt;" style="rhombus;whiteSpace=wrap;html=1;shadow=0;fontFamily=Helvetica;fontSize=12;align=center;strokeWidth=2;spacing=6;spacingTop=-4;fillColor=#f5f5f5;strokeColor=#666666;fontColor=#333333;" parent="WIyWlLk6GJQsqaUBKTNV-1" vertex="1">
          <mxGeometry x="40" y="130" width="120" height="90" as="geometry" />
        </mxCell>
        <mxCell id="K_dnV9f0_s6PBJcPADAx-93" value="" style="edgeStyle=orthogonalEdgeStyle;rounded=0;orthogonalLoop=1;jettySize=auto;html=1;startArrow=none;startFill=0;endArrow=block;endFill=1;endSize=6;strokeColor=#000000;strokeWidth=2;align=center;" edge="1" parent="WIyWlLk6GJQsqaUBKTNV-1" source="K_dnV9f0_s6PBJcPADAx-2" target="K_dnV9f0_s6PBJcPADAx-92">
          <mxGeometry relative="1" as="geometry" />
        </mxCell>
        <mxCell id="K_dnV9f0_s6PBJcPADAx-2" value="&lt;div&gt;&lt;b&gt;PhytObs list&lt;/b&gt;&lt;/div&gt;&lt;div&gt;&lt;b&gt;&lt;font style=&quot;font-size: 10px&quot;&gt;&lt;i&gt;C. Laplace-Treyture&lt;/i&gt;&lt;/font&gt;&lt;br&gt;&lt;/b&gt;&lt;/div&gt;" style="rounded=1;whiteSpace=wrap;html=1;fontSize=12;glass=0;strokeWidth=2;shadow=0;fillColor=#dae8fc;strokeColor=#6c8ebf;" vertex="1" parent="WIyWlLk6GJQsqaUBKTNV-1">
          <mxGeometry x="420" y="115" width="120" height="40" as="geometry" />
        </mxCell>
        <mxCell id="K_dnV9f0_s6PBJcPADAx-28" value="" style="endArrow=none;dashed=1;html=1;strokeColor=#000000;strokeWidth=2;" edge="1" parent="WIyWlLk6GJQsqaUBKTNV-1">
          <mxGeometry width="50" height="50" relative="1" as="geometry">
            <mxPoint x="20" y="100" as="sourcePoint" />
            <mxPoint x="20" y="10" as="targetPoint" />
          </mxGeometry>
        </mxCell>
        <mxCell id="K_dnV9f0_s6PBJcPADAx-29" value="" style="endArrow=none;dashed=1;html=1;strokeColor=#000000;strokeWidth=2;" edge="1" parent="WIyWlLk6GJQsqaUBKTNV-1">
          <mxGeometry width="50" height="50" relative="1" as="geometry">
            <mxPoint x="20" y="10" as="sourcePoint" />
            <mxPoint x="800" y="10" as="targetPoint" />
          </mxGeometry>
        </mxCell>
        <mxCell id="K_dnV9f0_s6PBJcPADAx-30" value="" style="endArrow=none;dashed=1;html=1;strokeColor=#000000;strokeWidth=2;" edge="1" parent="WIyWlLk6GJQsqaUBKTNV-1">
          <mxGeometry width="50" height="50" relative="1" as="geometry">
            <mxPoint x="20" y="100" as="sourcePoint" />
            <mxPoint x="800" y="100" as="targetPoint" />
          </mxGeometry>
        </mxCell>
        <mxCell id="K_dnV9f0_s6PBJcPADAx-31" value="" style="endArrow=none;dashed=1;html=1;strokeColor=#000000;strokeWidth=2;" edge="1" parent="WIyWlLk6GJQsqaUBKTNV-1">
          <mxGeometry width="50" height="50" relative="1" as="geometry">
            <mxPoint x="800" y="100" as="sourcePoint" />
            <mxPoint x="800" y="10" as="targetPoint" />
          </mxGeometry>
        </mxCell>
        <mxCell id="K_dnV9f0_s6PBJcPADAx-32" value="&lt;i&gt;From web&lt;/i&gt;" style="text;html=1;strokeColor=none;fillColor=none;align=center;verticalAlign=middle;whiteSpace=wrap;rounded=0;" vertex="1" parent="WIyWlLk6GJQsqaUBKTNV-1">
          <mxGeometry x="360" y="20" width="80" height="20" as="geometry" />
        </mxCell>
        <mxCell id="K_dnV9f0_s6PBJcPADAx-41" value="" style="edgeStyle=orthogonalEdgeStyle;rounded=0;orthogonalLoop=1;jettySize=auto;html=1;endArrow=block;endFill=1;strokeColor=#d79b00;strokeWidth=2;fillColor=#ffe6cc;" edge="1" parent="WIyWlLk6GJQsqaUBKTNV-1" source="K_dnV9f0_s6PBJcPADAx-36" target="K_dnV9f0_s6PBJcPADAx-40">
          <mxGeometry relative="1" as="geometry" />
        </mxCell>
        <mxCell id="K_dnV9f0_s6PBJcPADAx-36" value="&lt;b&gt;AlgaeBase&lt;/b&gt;" style="rounded=1;whiteSpace=wrap;html=1;strokeWidth=2;fillColor=#ffe6cc;strokeColor=#d79b00;" vertex="1" parent="WIyWlLk6GJQsqaUBKTNV-1">
          <mxGeometry x="640" y="40" width="120" height="40" as="geometry" />
        </mxCell>
        <mxCell id="K_dnV9f0_s6PBJcPADAx-53" value="" style="edgeStyle=orthogonalEdgeStyle;rounded=0;orthogonalLoop=1;jettySize=auto;html=1;endArrow=block;endFill=1;endSize=6;strokeColor=#000000;strokeWidth=2;align=center;" edge="1" parent="WIyWlLk6GJQsqaUBKTNV-1" source="K_dnV9f0_s6PBJcPADAx-37" target="K_dnV9f0_s6PBJcPADAx-52">
          <mxGeometry relative="1" as="geometry" />
        </mxCell>
        <mxCell id="K_dnV9f0_s6PBJcPADAx-37" value="&lt;b&gt;Script #2&lt;/b&gt;" style="ellipse;whiteSpace=wrap;html=1;strokeWidth=2;" vertex="1" parent="WIyWlLk6GJQsqaUBKTNV-1">
          <mxGeometry x="40" y="260" width="120" height="40" as="geometry" />
        </mxCell>
        <mxCell id="K_dnV9f0_s6PBJcPADAx-54" value="" style="edgeStyle=orthogonalEdgeStyle;rounded=0;orthogonalLoop=1;jettySize=auto;html=1;endArrow=block;endFill=1;endSize=6;strokeColor=#000000;strokeWidth=2;align=center;" edge="1" parent="WIyWlLk6GJQsqaUBKTNV-1" source="K_dnV9f0_s6PBJcPADAx-39" target="K_dnV9f0_s6PBJcPADAx-52">
          <mxGeometry relative="1" as="geometry" />
        </mxCell>
        <mxCell id="K_dnV9f0_s6PBJcPADAx-39" value="Classic Dowload" style="ellipse;whiteSpace=wrap;html=1;strokeWidth=1;" vertex="1" parent="WIyWlLk6GJQsqaUBKTNV-1">
          <mxGeometry x="200" y="155" width="120" height="40" as="geometry" />
        </mxCell>
        <mxCell id="K_dnV9f0_s6PBJcPADAx-73" value="" style="edgeStyle=orthogonalEdgeStyle;rounded=0;orthogonalLoop=1;jettySize=auto;html=1;endArrow=block;endFill=1;endSize=6;strokeColor=#000000;strokeWidth=2;align=center;" edge="1" parent="WIyWlLk6GJQsqaUBKTNV-1" source="K_dnV9f0_s6PBJcPADAx-40" target="K_dnV9f0_s6PBJcPADAx-72">
          <mxGeometry relative="1" as="geometry" />
        </mxCell>
        <mxCell id="K_dnV9f0_s6PBJcPADAx-40" value="&lt;b&gt;Script #1&lt;/b&gt;" style="ellipse;whiteSpace=wrap;html=1;strokeWidth=2;" vertex="1" parent="WIyWlLk6GJQsqaUBKTNV-1">
          <mxGeometry x="640" y="120" width="120" height="40" as="geometry" />
        </mxCell>
        <mxCell id="K_dnV9f0_s6PBJcPADAx-63" value="" style="edgeStyle=orthogonalEdgeStyle;rounded=0;orthogonalLoop=1;jettySize=auto;html=1;endArrow=block;endFill=1;endSize=6;strokeColor=#000000;strokeWidth=2;align=center;" edge="1" parent="WIyWlLk6GJQsqaUBKTNV-1" source="K_dnV9f0_s6PBJcPADAx-52" target="K_dnV9f0_s6PBJcPADAx-62">
          <mxGeometry relative="1" as="geometry" />
        </mxCell>
        <mxCell id="K_dnV9f0_s6PBJcPADAx-52" value="&lt;div&gt;&lt;b&gt;Marker&lt;/b&gt;&lt;/div&gt;&lt;div&gt;&lt;b&gt;dataset&lt;br&gt;&lt;/b&gt;&lt;/div&gt;" style="shape=note;whiteSpace=wrap;html=1;backgroundOutline=1;darkOpacity=0.05;strokeWidth=2;size=20;fillColor=#f8cecc;strokeColor=#b85450;" vertex="1" parent="WIyWlLk6GJQsqaUBKTNV-1">
          <mxGeometry x="230" y="245" width="60" height="70" as="geometry" />
        </mxCell>
        <mxCell id="K_dnV9f0_s6PBJcPADAx-57" value="&lt;b&gt;Yes&lt;/b&gt;" style="text;html=1;strokeColor=none;fillColor=none;align=center;verticalAlign=middle;whiteSpace=wrap;rounded=0;" vertex="1" parent="WIyWlLk6GJQsqaUBKTNV-1">
          <mxGeometry x="60" y="225" width="40" height="20" as="geometry" />
        </mxCell>
        <mxCell id="K_dnV9f0_s6PBJcPADAx-58" value="&lt;b&gt;No&lt;/b&gt;" style="text;whiteSpace=wrap;html=1;" vertex="1" parent="WIyWlLk6GJQsqaUBKTNV-1">
          <mxGeometry x="170" y="140" width="20" height="30" as="geometry" />
        </mxCell>
        <mxCell id="K_dnV9f0_s6PBJcPADAx-104" value="" style="edgeStyle=orthogonalEdgeStyle;rounded=0;orthogonalLoop=1;jettySize=auto;html=1;startArrow=none;startFill=0;endArrow=none;endFill=0;endSize=6;strokeColor=#000000;strokeWidth=2;align=center;" edge="1" parent="WIyWlLk6GJQsqaUBKTNV-1" source="K_dnV9f0_s6PBJcPADAx-62">
          <mxGeometry relative="1" as="geometry">
            <mxPoint x="260" y="430" as="targetPoint" />
          </mxGeometry>
        </mxCell>
        <mxCell id="K_dnV9f0_s6PBJcPADAx-62" value="&lt;b&gt;Script #3&lt;/b&gt;" style="ellipse;whiteSpace=wrap;html=1;strokeWidth=2;" vertex="1" parent="WIyWlLk6GJQsqaUBKTNV-1">
          <mxGeometry x="200" y="350" width="120" height="40" as="geometry" />
        </mxCell>
        <mxCell id="K_dnV9f0_s6PBJcPADAx-66" value="" style="edgeStyle=orthogonalEdgeStyle;rounded=0;orthogonalLoop=1;jettySize=auto;html=1;endArrow=block;endFill=1;endSize=6;strokeColor=#000000;strokeWidth=2;align=center;" edge="1" parent="WIyWlLk6GJQsqaUBKTNV-1" source="K_dnV9f0_s6PBJcPADAx-64" target="K_dnV9f0_s6PBJcPADAx-65">
          <mxGeometry relative="1" as="geometry" />
        </mxCell>
        <mxCell id="K_dnV9f0_s6PBJcPADAx-64" value="&lt;div&gt;&lt;b&gt;Microscopic observations from DOM lakes&lt;/b&gt;&lt;/div&gt;&lt;div&gt;&lt;b&gt;&lt;font style=&quot;font-size: 10px&quot;&gt;&lt;i&gt;A. Bonnet&lt;/i&gt;&lt;/font&gt;&lt;br&gt;&lt;/b&gt;&lt;/div&gt;" style="rounded=1;whiteSpace=wrap;html=1;fontSize=12;glass=0;strokeWidth=2;shadow=0;fillColor=#e1d5e7;strokeColor=#9673a6;" vertex="1" parent="WIyWlLk6GJQsqaUBKTNV-1">
          <mxGeometry x="870" y="20" width="160" height="60" as="geometry" />
        </mxCell>
        <mxCell id="K_dnV9f0_s6PBJcPADAx-65" value="&lt;div&gt;&lt;b&gt;DOM phytoplankton&lt;/b&gt;&lt;/div&gt;&lt;div&gt;&lt;b&gt;taxonomic list&lt;/b&gt;&lt;/div&gt;" style="shape=note;whiteSpace=wrap;html=1;backgroundOutline=1;darkOpacity=0.05;rounded=1;shadow=0;strokeColor=#9673a6;strokeWidth=2;fillColor=#e1d5e7;glass=0;size=22;" vertex="1" parent="WIyWlLk6GJQsqaUBKTNV-1">
          <mxGeometry x="905" y="195" width="90" height="87.5" as="geometry" />
        </mxCell>
        <mxCell id="K_dnV9f0_s6PBJcPADAx-67" value="" style="endArrow=none;dashed=1;html=1;strokeColor=#9673a6;strokeWidth=2;align=center;fillColor=#e1d5e7;" edge="1" parent="WIyWlLk6GJQsqaUBKTNV-1">
          <mxGeometry width="50" height="50" relative="1" as="geometry">
            <mxPoint x="860" y="320" as="sourcePoint" />
            <mxPoint x="860" y="10" as="targetPoint" />
            <Array as="points" />
          </mxGeometry>
        </mxCell>
        <mxCell id="K_dnV9f0_s6PBJcPADAx-68" value="" style="endArrow=none;dashed=1;html=1;strokeColor=#9673a6;strokeWidth=2;align=center;fillColor=#e1d5e7;" edge="1" parent="WIyWlLk6GJQsqaUBKTNV-1">
          <mxGeometry width="50" height="50" relative="1" as="geometry">
            <mxPoint x="1040" y="320" as="sourcePoint" />
            <mxPoint x="1040" y="10" as="targetPoint" />
            <Array as="points" />
          </mxGeometry>
        </mxCell>
        <mxCell id="K_dnV9f0_s6PBJcPADAx-69" value="" style="endArrow=none;dashed=1;html=1;strokeColor=#9673a6;strokeWidth=2;align=center;fillColor=#e1d5e7;" edge="1" parent="WIyWlLk6GJQsqaUBKTNV-1">
          <mxGeometry width="50" height="50" relative="1" as="geometry">
            <mxPoint x="860" y="320" as="sourcePoint" />
            <mxPoint x="1040" y="320" as="targetPoint" />
          </mxGeometry>
        </mxCell>
        <mxCell id="K_dnV9f0_s6PBJcPADAx-70" value="" style="endArrow=none;dashed=1;html=1;strokeColor=#9673a6;strokeWidth=2;align=center;fillColor=#e1d5e7;" edge="1" parent="WIyWlLk6GJQsqaUBKTNV-1">
          <mxGeometry width="50" height="50" relative="1" as="geometry">
            <mxPoint x="860" y="10" as="sourcePoint" />
            <mxPoint x="1040" y="10" as="targetPoint" />
          </mxGeometry>
        </mxCell>
        <mxCell id="K_dnV9f0_s6PBJcPADAx-71" value="&lt;i&gt;See Objectif 1&lt;/i&gt;" style="text;html=1;strokeColor=#9673a6;fillColor=#e1d5e7;align=center;verticalAlign=middle;whiteSpace=wrap;rounded=0;" vertex="1" parent="WIyWlLk6GJQsqaUBKTNV-1">
          <mxGeometry x="950" y="295" width="80" height="20" as="geometry" />
        </mxCell>
        <mxCell id="K_dnV9f0_s6PBJcPADAx-86" value="" style="edgeStyle=orthogonalEdgeStyle;rounded=0;orthogonalLoop=1;jettySize=auto;html=1;startArrow=block;startFill=1;endArrow=block;endFill=1;endSize=6;strokeColor=#000000;strokeWidth=2;align=center;" edge="1" parent="WIyWlLk6GJQsqaUBKTNV-1" source="K_dnV9f0_s6PBJcPADAx-72" target="K_dnV9f0_s6PBJcPADAx-83">
          <mxGeometry relative="1" as="geometry" />
        </mxCell>
        <mxCell id="K_dnV9f0_s6PBJcPADAx-112" style="edgeStyle=orthogonalEdgeStyle;rounded=0;orthogonalLoop=1;jettySize=auto;html=1;entryX=1;entryY=0.5;entryDx=0;entryDy=0;startArrow=none;startFill=0;endArrow=block;endFill=1;endSize=6;strokeColor=#000000;strokeWidth=2;align=center;exitX=0.5;exitY=1;exitDx=0;exitDy=0;exitPerimeter=0;" edge="1" parent="WIyWlLk6GJQsqaUBKTNV-1" source="K_dnV9f0_s6PBJcPADAx-72" target="K_dnV9f0_s6PBJcPADAx-110">
          <mxGeometry relative="1" as="geometry">
            <Array as="points">
              <mxPoint x="700" y="485" />
            </Array>
          </mxGeometry>
        </mxCell>
        <mxCell id="K_dnV9f0_s6PBJcPADAx-72" value="&lt;div&gt;&lt;b&gt;&lt;br&gt;&lt;/b&gt;&lt;/div&gt;&lt;div&gt;&lt;b&gt;Reference taxonomy&lt;/b&gt;&lt;/div&gt;&lt;div&gt;&lt;b&gt;file&lt;br&gt;&lt;/b&gt;&lt;/div&gt;" style="shape=note;whiteSpace=wrap;html=1;backgroundOutline=1;darkOpacity=0.05;strokeWidth=2;size=20;fillColor=#ffe6cc;strokeColor=#d79b00;" vertex="1" parent="WIyWlLk6GJQsqaUBKTNV-1">
          <mxGeometry x="660" y="203.75" width="80" height="106.25" as="geometry" />
        </mxCell>
        <mxCell id="K_dnV9f0_s6PBJcPADAx-87" value="" style="edgeStyle=orthogonalEdgeStyle;rounded=0;orthogonalLoop=1;jettySize=auto;html=1;startArrow=block;startFill=1;endArrow=block;endFill=1;endSize=6;strokeColor=#000000;strokeWidth=2;align=center;" edge="1" parent="WIyWlLk6GJQsqaUBKTNV-1" source="K_dnV9f0_s6PBJcPADAx-83" target="K_dnV9f0_s6PBJcPADAx-65">
          <mxGeometry relative="1" as="geometry">
            <Array as="points">
              <mxPoint x="900" y="257" />
              <mxPoint x="900" y="257" />
            </Array>
          </mxGeometry>
        </mxCell>
        <mxCell id="K_dnV9f0_s6PBJcPADAx-89" value="" style="edgeStyle=orthogonalEdgeStyle;rounded=0;orthogonalLoop=1;jettySize=auto;html=1;startArrow=none;startFill=0;endArrow=block;endFill=1;endSize=6;strokeColor=#000000;strokeWidth=2;align=center;" edge="1" parent="WIyWlLk6GJQsqaUBKTNV-1" source="K_dnV9f0_s6PBJcPADAx-83">
          <mxGeometry relative="1" as="geometry">
            <mxPoint x="822" y="340" as="targetPoint" />
          </mxGeometry>
        </mxCell>
        <mxCell id="K_dnV9f0_s6PBJcPADAx-83" value="" style="ellipse;whiteSpace=wrap;html=1;strokeWidth=1;fillColor=#e51400;strokeColor=#B20000;fontColor=#ffffff;" vertex="1" parent="WIyWlLk6GJQsqaUBKTNV-1">
          <mxGeometry x="817" y="251.88" width="10" height="10" as="geometry" />
        </mxCell>
        <mxCell id="K_dnV9f0_s6PBJcPADAx-15" value="&lt;font color=&quot;#FF0000&quot;&gt;&lt;b&gt;UPDATE&lt;/b&gt;&lt;/font&gt;" style="text;html=1;align=center;verticalAlign=middle;whiteSpace=wrap;rounded=0;" vertex="1" parent="WIyWlLk6GJQsqaUBKTNV-1">
          <mxGeometry x="802" y="225" width="40" height="20" as="geometry" />
        </mxCell>
        <mxCell id="K_dnV9f0_s6PBJcPADAx-90" value="&lt;div&gt;&lt;b&gt;&lt;br&gt;&lt;/b&gt;&lt;/div&gt;&lt;div&gt;&lt;b&gt;Updated DOM phytoplankton&lt;/b&gt;&lt;/div&gt;&lt;div&gt;&lt;b&gt;taxonomic list&lt;/b&gt;&lt;/div&gt;" style="shape=note;whiteSpace=wrap;html=1;backgroundOutline=1;darkOpacity=0.05;rounded=1;shadow=0;strokeColor=#82b366;strokeWidth=2;fillColor=#d5e8d4;glass=0;size=22;" vertex="1" parent="WIyWlLk6GJQsqaUBKTNV-1">
          <mxGeometry x="780" y="340" width="90" height="87.5" as="geometry" />
        </mxCell>
        <mxCell id="K_dnV9f0_s6PBJcPADAx-95" style="edgeStyle=orthogonalEdgeStyle;rounded=0;orthogonalLoop=1;jettySize=auto;html=1;startArrow=none;startFill=0;endArrow=block;endFill=1;endSize=6;strokeColor=#000000;strokeWidth=2;align=center;exitX=0.5;exitY=1;exitDx=0;exitDy=0;" edge="1" parent="WIyWlLk6GJQsqaUBKTNV-1" source="K_dnV9f0_s6PBJcPADAx-92" target="K_dnV9f0_s6PBJcPADAx-72">
          <mxGeometry relative="1" as="geometry">
            <Array as="points">
              <mxPoint x="480" y="257" />
            </Array>
          </mxGeometry>
        </mxCell>
        <mxCell id="K_dnV9f0_s6PBJcPADAx-92" value="&lt;div&gt;&lt;b&gt;Script #4 &lt;/b&gt;&lt;br&gt;&lt;/div&gt;&lt;div&gt;(old version)&lt;/div&gt;" style="ellipse;whiteSpace=wrap;html=1;rounded=1;shadow=0;strokeWidth=2;glass=0;" vertex="1" parent="WIyWlLk6GJQsqaUBKTNV-1">
          <mxGeometry x="420" y="195" width="120" height="50" as="geometry" />
        </mxCell>
        <mxCell id="K_dnV9f0_s6PBJcPADAx-94" value="&lt;div&gt;92.17%&lt;/div&gt;&lt;div&gt;matched taxa&lt;/div&gt;" style="text;html=1;strokeColor=none;fillColor=none;align=center;verticalAlign=middle;whiteSpace=wrap;rounded=0;" vertex="1" parent="WIyWlLk6GJQsqaUBKTNV-1">
          <mxGeometry x="770" y="290" width="40" height="20" as="geometry" />
        </mxCell>
        <mxCell id="K_dnV9f0_s6PBJcPADAx-96" value="" style="endArrow=block;html=1;strokeColor=#000000;strokeWidth=2;align=center;endFill=1;" edge="1" parent="WIyWlLk6GJQsqaUBKTNV-1">
          <mxGeometry width="50" height="50" relative="1" as="geometry">
            <mxPoint x="480" y="245" as="sourcePoint" />
            <mxPoint x="480" y="340" as="targetPoint" />
          </mxGeometry>
        </mxCell>
        <mxCell id="K_dnV9f0_s6PBJcPADAx-111" value="" style="edgeStyle=orthogonalEdgeStyle;rounded=0;orthogonalLoop=1;jettySize=auto;html=1;startArrow=none;startFill=0;endArrow=block;endFill=1;endSize=6;strokeColor=#000000;strokeWidth=2;align=center;" edge="1" parent="WIyWlLk6GJQsqaUBKTNV-1" source="K_dnV9f0_s6PBJcPADAx-97" target="K_dnV9f0_s6PBJcPADAx-110">
          <mxGeometry relative="1" as="geometry" />
        </mxCell>
        <mxCell id="K_dnV9f0_s6PBJcPADAx-156" style="edgeStyle=orthogonalEdgeStyle;rounded=0;orthogonalLoop=1;jettySize=auto;html=1;entryX=0;entryY=0;entryDx=60;entryDy=20;entryPerimeter=0;dashed=1;startArrow=block;startFill=1;endArrow=block;endFill=1;endSize=6;strokeColor=#000000;strokeWidth=1;align=center;" edge="1" parent="WIyWlLk6GJQsqaUBKTNV-1" source="K_dnV9f0_s6PBJcPADAx-97" target="K_dnV9f0_s6PBJcPADAx-115">
          <mxGeometry relative="1" as="geometry">
            <Array as="points">
              <mxPoint x="520" y="580" />
            </Array>
          </mxGeometry>
        </mxCell>
        <mxCell id="K_dnV9f0_s6PBJcPADAx-97" value="&lt;div&gt;&lt;b&gt;&lt;br&gt;&lt;/b&gt;&lt;/div&gt;&lt;div&gt;&lt;b&gt;Updated PhytObs&lt;/b&gt;&lt;/div&gt;&lt;div&gt;&lt;b&gt;list&lt;/b&gt;&lt;/div&gt;" style="shape=note;whiteSpace=wrap;html=1;backgroundOutline=1;darkOpacity=0.05;rounded=1;shadow=0;strokeColor=#82b366;strokeWidth=2;fillColor=#d5e8d4;glass=0;size=22;" vertex="1" parent="WIyWlLk6GJQsqaUBKTNV-1">
          <mxGeometry x="440" y="340" width="80" height="87.5" as="geometry" />
        </mxCell>
        <mxCell id="K_dnV9f0_s6PBJcPADAx-101" value="" style="endArrow=block;html=1;strokeColor=#000000;strokeWidth=1;align=center;entryX=0;entryY=0.571;entryDx=0;entryDy=0;entryPerimeter=0;startArrow=block;startFill=1;endFill=1;dashed=1;" edge="1" parent="WIyWlLk6GJQsqaUBKTNV-1" target="K_dnV9f0_s6PBJcPADAx-90">
          <mxGeometry relative="1" as="geometry">
            <mxPoint x="525" y="390" as="sourcePoint" />
            <mxPoint x="625" y="390" as="targetPoint" />
          </mxGeometry>
        </mxCell>
        <mxCell id="K_dnV9f0_s6PBJcPADAx-102" value="&lt;b&gt;Gap_analysis_DOM_vs_PhytObs.R &lt;/b&gt;" style="edgeLabel;resizable=0;html=1;align=center;verticalAlign=middle;fontStyle=2" connectable="0" vertex="1" parent="K_dnV9f0_s6PBJcPADAx-101">
          <mxGeometry relative="1" as="geometry">
            <mxPoint x="-13" y="-9.98" as="offset" />
          </mxGeometry>
        </mxCell>
        <mxCell id="K_dnV9f0_s6PBJcPADAx-109" value="" style="edgeStyle=orthogonalEdgeStyle;rounded=0;orthogonalLoop=1;jettySize=auto;html=1;startArrow=none;startFill=0;endArrow=block;endFill=1;endSize=6;strokeColor=#000000;strokeWidth=2;align=center;" edge="1" parent="WIyWlLk6GJQsqaUBKTNV-1" source="K_dnV9f0_s6PBJcPADAx-105">
          <mxGeometry relative="1" as="geometry">
            <mxPoint x="420" y="485" as="targetPoint" />
          </mxGeometry>
        </mxCell>
        <mxCell id="K_dnV9f0_s6PBJcPADAx-105" value="&lt;div&gt;&lt;b&gt;taxonomy&lt;/b&gt;&lt;/div&gt;&lt;div&gt;&lt;b&gt;file&lt;br&gt;&lt;/b&gt;&lt;/div&gt;" style="shape=note;whiteSpace=wrap;html=1;backgroundOutline=1;darkOpacity=0.05;strokeWidth=2;size=20;fillColor=#f8cecc;strokeColor=#b85450;" vertex="1" parent="WIyWlLk6GJQsqaUBKTNV-1">
          <mxGeometry x="300" y="450" width="60" height="70" as="geometry" />
        </mxCell>
        <mxCell id="K_dnV9f0_s6PBJcPADAx-106" value="&lt;div&gt;&lt;b&gt;fasta&lt;/b&gt;&lt;/div&gt;&lt;div&gt;&lt;b&gt;file&lt;br&gt;&lt;/b&gt;&lt;/div&gt;" style="shape=note;whiteSpace=wrap;html=1;backgroundOutline=1;darkOpacity=0.05;strokeWidth=2;size=20;fillColor=#f8cecc;strokeColor=#b85450;" vertex="1" parent="WIyWlLk6GJQsqaUBKTNV-1">
          <mxGeometry x="160" y="450" width="60" height="70" as="geometry" />
        </mxCell>
        <mxCell id="K_dnV9f0_s6PBJcPADAx-107" value="" style="endArrow=block;html=1;strokeColor=#000000;strokeWidth=2;align=center;exitX=0.5;exitY=0;exitDx=0;exitDy=0;exitPerimeter=0;entryX=0.5;entryY=0;entryDx=0;entryDy=0;entryPerimeter=0;endFill=1;startArrow=block;startFill=1;" edge="1" parent="WIyWlLk6GJQsqaUBKTNV-1" source="K_dnV9f0_s6PBJcPADAx-106" target="K_dnV9f0_s6PBJcPADAx-105">
          <mxGeometry width="50" height="50" relative="1" as="geometry">
            <mxPoint x="390" y="490" as="sourcePoint" />
            <mxPoint x="330" y="440" as="targetPoint" />
            <Array as="points">
              <mxPoint x="260" y="430" />
            </Array>
          </mxGeometry>
        </mxCell>
        <mxCell id="K_dnV9f0_s6PBJcPADAx-114" value="" style="edgeStyle=orthogonalEdgeStyle;rounded=0;orthogonalLoop=1;jettySize=auto;html=1;startArrow=none;startFill=0;endArrow=block;endFill=1;endSize=6;strokeColor=#000000;strokeWidth=2;align=center;" edge="1" parent="WIyWlLk6GJQsqaUBKTNV-1" source="K_dnV9f0_s6PBJcPADAx-110">
          <mxGeometry relative="1" as="geometry">
            <mxPoint x="480" y="555" as="targetPoint" />
          </mxGeometry>
        </mxCell>
        <mxCell id="K_dnV9f0_s6PBJcPADAx-110" value="&lt;b&gt;Script #4&lt;/b&gt;" style="ellipse;whiteSpace=wrap;html=1;strokeWidth=2;" vertex="1" parent="WIyWlLk6GJQsqaUBKTNV-1">
          <mxGeometry x="420" y="465" width="120" height="40" as="geometry" />
        </mxCell>
        <mxCell id="K_dnV9f0_s6PBJcPADAx-117" value="" style="edgeStyle=orthogonalEdgeStyle;rounded=0;orthogonalLoop=1;jettySize=auto;html=1;startArrow=none;startFill=0;endArrow=block;endFill=1;endSize=6;strokeColor=#000000;strokeWidth=2;align=center;entryX=0.5;entryY=0;entryDx=0;entryDy=0;" edge="1" parent="WIyWlLk6GJQsqaUBKTNV-1" source="K_dnV9f0_s6PBJcPADAx-115" target="K_dnV9f0_s6PBJcPADAx-118">
          <mxGeometry relative="1" as="geometry">
            <mxPoint x="480" y="650" as="targetPoint" />
            <Array as="points" />
          </mxGeometry>
        </mxCell>
        <mxCell id="K_dnV9f0_s6PBJcPADAx-115" value="&lt;div&gt;&lt;b&gt;&lt;br&gt;&lt;/b&gt;&lt;/div&gt;&lt;div&gt;&lt;b&gt;Updated&lt;br&gt;&lt;/b&gt;&lt;/div&gt;&lt;div&gt;&lt;b&gt;taxonomy&lt;/b&gt;&lt;/div&gt;&lt;div&gt;&lt;b&gt;file&lt;br&gt;&lt;/b&gt;&lt;/div&gt;" style="shape=note;whiteSpace=wrap;html=1;backgroundOutline=1;darkOpacity=0.05;strokeWidth=2;size=20;fillColor=#d5e8d4;strokeColor=#82b366;" vertex="1" parent="WIyWlLk6GJQsqaUBKTNV-1">
          <mxGeometry x="450" y="560" width="60" height="70" as="geometry" />
        </mxCell>
        <mxCell id="K_dnV9f0_s6PBJcPADAx-126" value="" style="edgeStyle=orthogonalEdgeStyle;rounded=0;orthogonalLoop=1;jettySize=auto;html=1;startArrow=none;startFill=0;endArrow=block;endFill=1;endSize=6;strokeColor=#000000;strokeWidth=2;align=center;" edge="1" parent="WIyWlLk6GJQsqaUBKTNV-1" source="K_dnV9f0_s6PBJcPADAx-118" target="K_dnV9f0_s6PBJcPADAx-125">
          <mxGeometry relative="1" as="geometry" />
        </mxCell>
        <mxCell id="K_dnV9f0_s6PBJcPADAx-118" value="&lt;div&gt;&lt;b&gt;Script #4&lt;/b&gt;&lt;/div&gt;&lt;div&gt;(following)&lt;br&gt;&lt;b&gt;&lt;/b&gt;&lt;/div&gt;" style="ellipse;whiteSpace=wrap;html=1;strokeWidth=2;" vertex="1" parent="WIyWlLk6GJQsqaUBKTNV-1">
          <mxGeometry x="420" y="660" width="120" height="40" as="geometry" />
        </mxCell>
        <mxCell id="K_dnV9f0_s6PBJcPADAx-121" value="" style="endArrow=block;html=1;strokeColor=#000000;strokeWidth=1;align=center;startArrow=block;startFill=1;endFill=1;dashed=1;" edge="1" parent="WIyWlLk6GJQsqaUBKTNV-1">
          <mxGeometry relative="1" as="geometry">
            <mxPoint x="517" y="597.54" as="sourcePoint" />
            <mxPoint x="827" y="427.5" as="targetPoint" />
            <Array as="points">
              <mxPoint x="827" y="597.5" />
            </Array>
          </mxGeometry>
        </mxCell>
        <mxCell id="K_dnV9f0_s6PBJcPADAx-122" value="&lt;div&gt;&lt;b&gt;Gap-analysis_DOM_vs_marker_references.Rmd&lt;/b&gt;&lt;/div&gt;&lt;div&gt;&lt;b&gt;&lt;br&gt; &lt;/b&gt;&lt;/div&gt;" style="edgeLabel;resizable=0;html=1;align=center;verticalAlign=middle;fontStyle=2" connectable="0" vertex="1" parent="K_dnV9f0_s6PBJcPADAx-121">
          <mxGeometry relative="1" as="geometry">
            <mxPoint x="-87" y="22.49" as="offset" />
          </mxGeometry>
        </mxCell>
        <mxCell id="K_dnV9f0_s6PBJcPADAx-133" value="" style="edgeStyle=orthogonalEdgeStyle;rounded=0;orthogonalLoop=1;jettySize=auto;html=1;startArrow=none;startFill=0;endArrow=block;endFill=1;endSize=6;strokeColor=#000000;strokeWidth=2;align=center;" edge="1" parent="WIyWlLk6GJQsqaUBKTNV-1" source="K_dnV9f0_s6PBJcPADAx-125" target="K_dnV9f0_s6PBJcPADAx-132">
          <mxGeometry relative="1" as="geometry" />
        </mxCell>
        <mxCell id="K_dnV9f0_s6PBJcPADAx-143" style="edgeStyle=orthogonalEdgeStyle;rounded=0;orthogonalLoop=1;jettySize=auto;html=1;startArrow=none;startFill=0;endArrow=block;endFill=1;endSize=6;strokeColor=#000000;strokeWidth=2;align=center;" edge="1" parent="WIyWlLk6GJQsqaUBKTNV-1" source="K_dnV9f0_s6PBJcPADAx-125" target="K_dnV9f0_s6PBJcPADAx-140">
          <mxGeometry relative="1" as="geometry">
            <Array as="points">
              <mxPoint x="480" y="820" />
              <mxPoint x="650" y="820" />
            </Array>
          </mxGeometry>
        </mxCell>
        <mxCell id="K_dnV9f0_s6PBJcPADAx-163" style="edgeStyle=orthogonalEdgeStyle;rounded=0;orthogonalLoop=1;jettySize=auto;html=1;startArrow=none;startFill=0;endArrow=block;endFill=1;endSize=6;strokeColor=#000000;strokeWidth=2;fontColor=#000000;align=center;" edge="1" parent="WIyWlLk6GJQsqaUBKTNV-1" source="K_dnV9f0_s6PBJcPADAx-125">
          <mxGeometry relative="1" as="geometry">
            <mxPoint x="740" y="765" as="targetPoint" />
          </mxGeometry>
        </mxCell>
        <mxCell id="K_dnV9f0_s6PBJcPADAx-125" value="&lt;div&gt;&lt;b&gt;&lt;br&gt;&lt;/b&gt;&lt;/div&gt;&lt;div&gt;&lt;b&gt;Updated&lt;br&gt;&lt;/b&gt;&lt;/div&gt;&lt;div&gt;&lt;b&gt;fasta&lt;/b&gt;&lt;/div&gt;&lt;div&gt;&lt;b&gt;file&lt;br&gt;&lt;/b&gt;&lt;/div&gt;" style="shape=note;whiteSpace=wrap;html=1;backgroundOutline=1;darkOpacity=0.05;strokeWidth=2;size=20;fillColor=#d5e8d4;strokeColor=#82b366;" vertex="1" parent="WIyWlLk6GJQsqaUBKTNV-1">
          <mxGeometry x="450" y="730" width="60" height="70" as="geometry" />
        </mxCell>
        <mxCell id="K_dnV9f0_s6PBJcPADAx-127" value="" style="endArrow=block;html=1;strokeColor=#000000;strokeWidth=2;align=center;exitX=0.5;exitY=1;exitDx=0;exitDy=0;exitPerimeter=0;entryX=0;entryY=0.5;entryDx=0;entryDy=0;endFill=1;" edge="1" parent="WIyWlLk6GJQsqaUBKTNV-1" source="K_dnV9f0_s6PBJcPADAx-106" target="K_dnV9f0_s6PBJcPADAx-118">
          <mxGeometry width="50" height="50" relative="1" as="geometry">
            <mxPoint x="260" y="590" as="sourcePoint" />
            <mxPoint x="310" y="540" as="targetPoint" />
          </mxGeometry>
        </mxCell>
        <mxCell id="K_dnV9f0_s6PBJcPADAx-131" value="&lt;div align=&quot;center&quot;&gt;&lt;b&gt;List of involved scripts and their original names :&lt;br&gt;&lt;/b&gt;&lt;/div&gt;&lt;div align=&quot;left&quot;&gt;&lt;b&gt;&lt;br&gt;&lt;/b&gt;&lt;/div&gt;&lt;div align=&quot;left&quot;&gt;&lt;b&gt;&lt;br&gt;&lt;/b&gt;&lt;/div&gt;&lt;div align=&quot;left&quot;&gt;&lt;b&gt;Script #1 &lt;/b&gt;: &quot;Webscrap_AlgaeBase_taxonomy-genusID.py&lt;/div&gt;&lt;div align=&quot;left&quot;&gt;&lt;b&gt;Script #2&lt;/b&gt; : &quot;Extract_gene_from_GenBank_data.py&quot;&lt;/div&gt;&lt;div align=&quot;left&quot;&gt;&lt;b&gt;Script #3&lt;/b&gt; : &quot;clean_seqs_and_tax_file.sh&quot;&lt;/div&gt;&lt;div align=&quot;left&quot;&gt;&lt;b&gt;Script #4&lt;/b&gt; : &quot;MaJ_taxonomy_reference_database_with_AB.Rmd&quot;&lt;/div&gt;&lt;div align=&quot;left&quot;&gt;&lt;b&gt;Script #5&lt;/b&gt; : remove_doublons.sh&lt;/div&gt;&lt;div align=&quot;left&quot;&gt;&lt;b&gt;Script #6 &lt;/b&gt;: remove.indetical.genus_sp.sequences.sh&lt;/div&gt;&lt;div align=&quot;left&quot;&gt;&lt;b&gt;Script #7 &lt;/b&gt;: test.primers.v3.sh&lt;/div&gt;&lt;div align=&quot;left&quot;&gt;&lt;b&gt;Script #8&lt;/b&gt; : pcr.seqs() from mothur (&lt;i&gt;see workflow description)&lt;/i&gt;&lt;/div&gt;&lt;div align=&quot;left&quot;&gt;&lt;b&gt;Script #9 &lt;/b&gt;: subsample_random_sequences.sh&lt;/div&gt;&lt;div align=&quot;left&quot;&gt;&lt;b&gt;Script #10 &lt;/b&gt;: multi-design.primers.sh&lt;/div&gt;&lt;div align=&quot;left&quot;&gt;&lt;b&gt;Script #11 &lt;/b&gt;: Multiple_alignements_analysis.Rmd&lt;/div&gt;&lt;div align=&quot;left&quot;&gt;&lt;b&gt;Script #12&lt;/b&gt; : visualize_primers_coverage.Rmd&lt;br&gt;&lt;/div&gt;" style="rounded=0;whiteSpace=wrap;html=1;strokeWidth=1;fillColor=#F2F2F2;" vertex="1" parent="WIyWlLk6GJQsqaUBKTNV-1">
          <mxGeometry x="10" y="700" width="360" height="250" as="geometry" />
        </mxCell>
        <mxCell id="K_dnV9f0_s6PBJcPADAx-135" value="" style="edgeStyle=orthogonalEdgeStyle;rounded=0;orthogonalLoop=1;jettySize=auto;html=1;startArrow=none;startFill=0;endArrow=block;endFill=1;endSize=6;strokeColor=#000000;strokeWidth=2;align=center;" edge="1" parent="WIyWlLk6GJQsqaUBKTNV-1" source="K_dnV9f0_s6PBJcPADAx-132" target="K_dnV9f0_s6PBJcPADAx-134">
          <mxGeometry relative="1" as="geometry" />
        </mxCell>
        <mxCell id="K_dnV9f0_s6PBJcPADAx-142" style="edgeStyle=orthogonalEdgeStyle;rounded=0;orthogonalLoop=1;jettySize=auto;html=1;exitX=0;exitY=0.5;exitDx=0;exitDy=0;startArrow=none;startFill=0;endArrow=block;endFill=1;endSize=6;strokeColor=#000000;strokeWidth=2;align=center;" edge="1" parent="WIyWlLk6GJQsqaUBKTNV-1" source="K_dnV9f0_s6PBJcPADAx-132">
          <mxGeometry relative="1" as="geometry">
            <mxPoint x="400" y="900" as="targetPoint" />
          </mxGeometry>
        </mxCell>
        <mxCell id="K_dnV9f0_s6PBJcPADAx-132" value="Remove doublons?" style="rhombus;whiteSpace=wrap;html=1;shadow=0;fontFamily=Helvetica;fontSize=12;align=center;strokeWidth=2;spacing=6;spacingTop=-4;fillColor=#f5f5f5;strokeColor=#666666;fontColor=#333333;" vertex="1" parent="WIyWlLk6GJQsqaUBKTNV-1">
          <mxGeometry x="420" y="850" width="120" height="100" as="geometry" />
        </mxCell>
        <mxCell id="K_dnV9f0_s6PBJcPADAx-141" style="edgeStyle=orthogonalEdgeStyle;rounded=0;orthogonalLoop=1;jettySize=auto;html=1;entryX=0;entryY=0.5;entryDx=0;entryDy=0;entryPerimeter=0;startArrow=none;startFill=0;endArrow=block;endFill=1;endSize=6;strokeColor=#000000;strokeWidth=2;align=center;" edge="1" parent="WIyWlLk6GJQsqaUBKTNV-1" source="K_dnV9f0_s6PBJcPADAx-134" target="K_dnV9f0_s6PBJcPADAx-125">
          <mxGeometry relative="1" as="geometry">
            <Array as="points">
              <mxPoint x="400" y="1010" />
              <mxPoint x="400" y="765" />
            </Array>
          </mxGeometry>
        </mxCell>
        <mxCell id="K_dnV9f0_s6PBJcPADAx-134" value="&lt;div&gt;&lt;b&gt;Script #5&lt;/b&gt;&lt;br&gt;&lt;b&gt;&lt;/b&gt;&lt;/div&gt;" style="ellipse;whiteSpace=wrap;html=1;strokeWidth=2;" vertex="1" parent="WIyWlLk6GJQsqaUBKTNV-1">
          <mxGeometry x="420" y="990" width="120" height="40" as="geometry" />
        </mxCell>
        <mxCell id="K_dnV9f0_s6PBJcPADAx-136" value="&lt;b&gt;Yes&lt;/b&gt;" style="text;html=1;strokeColor=none;fillColor=none;align=center;verticalAlign=middle;whiteSpace=wrap;rounded=0;" vertex="1" parent="WIyWlLk6GJQsqaUBKTNV-1">
          <mxGeometry x="440" y="960" width="40" height="20" as="geometry" />
        </mxCell>
        <mxCell id="K_dnV9f0_s6PBJcPADAx-139" value="&lt;b&gt;No&lt;/b&gt;" style="text;whiteSpace=wrap;html=1;" vertex="1" parent="WIyWlLk6GJQsqaUBKTNV-1">
          <mxGeometry x="404" y="860" width="20" height="30" as="geometry" />
        </mxCell>
        <mxCell id="K_dnV9f0_s6PBJcPADAx-145" value="" style="edgeStyle=orthogonalEdgeStyle;rounded=0;orthogonalLoop=1;jettySize=auto;html=1;startArrow=none;startFill=0;endArrow=block;endFill=1;endSize=6;strokeColor=#000000;strokeWidth=2;align=center;" edge="1" parent="WIyWlLk6GJQsqaUBKTNV-1" source="K_dnV9f0_s6PBJcPADAx-140" target="K_dnV9f0_s6PBJcPADAx-144">
          <mxGeometry relative="1" as="geometry" />
        </mxCell>
        <mxCell id="K_dnV9f0_s6PBJcPADAx-147" style="edgeStyle=orthogonalEdgeStyle;rounded=0;orthogonalLoop=1;jettySize=auto;html=1;exitX=0;exitY=0.5;exitDx=0;exitDy=0;startArrow=none;startFill=0;endArrow=block;endFill=1;endSize=6;strokeColor=#000000;strokeWidth=2;align=center;entryX=0;entryY=0.5;entryDx=0;entryDy=0;entryPerimeter=0;" edge="1" parent="WIyWlLk6GJQsqaUBKTNV-1" source="K_dnV9f0_s6PBJcPADAx-140" target="K_dnV9f0_s6PBJcPADAx-165">
          <mxGeometry relative="1" as="geometry">
            <mxPoint x="600" y="1110" as="targetPoint" />
            <Array as="points">
              <mxPoint x="570" y="900" />
              <mxPoint x="570" y="1110" />
            </Array>
          </mxGeometry>
        </mxCell>
        <mxCell id="K_dnV9f0_s6PBJcPADAx-140" value="&lt;div&gt;Remove &lt;br&gt;&lt;/div&gt;&lt;div&gt;redondant&lt;/div&gt;&lt;div&gt;taxa ?&lt;/div&gt;" style="rhombus;whiteSpace=wrap;html=1;shadow=0;fontFamily=Helvetica;fontSize=12;align=center;strokeWidth=2;spacing=6;spacingTop=-4;fillColor=#f5f5f5;strokeColor=#666666;fontColor=#333333;" vertex="1" parent="WIyWlLk6GJQsqaUBKTNV-1">
          <mxGeometry x="590" y="850" width="120" height="100" as="geometry" />
        </mxCell>
        <mxCell id="K_dnV9f0_s6PBJcPADAx-166" value="" style="edgeStyle=orthogonalEdgeStyle;rounded=0;orthogonalLoop=1;jettySize=auto;html=1;startArrow=none;startFill=0;endArrow=block;endFill=1;endSize=6;strokeColor=#000000;strokeWidth=2;fontColor=#000000;align=center;" edge="1" parent="WIyWlLk6GJQsqaUBKTNV-1" source="K_dnV9f0_s6PBJcPADAx-144" target="K_dnV9f0_s6PBJcPADAx-165">
          <mxGeometry relative="1" as="geometry" />
        </mxCell>
        <mxCell id="K_dnV9f0_s6PBJcPADAx-144" value="&lt;div&gt;&lt;b&gt;Script #6&lt;/b&gt;&lt;br&gt;&lt;b&gt;&lt;/b&gt;&lt;/div&gt;" style="ellipse;whiteSpace=wrap;html=1;strokeWidth=2;" vertex="1" parent="WIyWlLk6GJQsqaUBKTNV-1">
          <mxGeometry x="590" y="990" width="120" height="40" as="geometry" />
        </mxCell>
        <mxCell id="K_dnV9f0_s6PBJcPADAx-146" value="&lt;b&gt;Yes&lt;/b&gt;" style="text;html=1;strokeColor=none;fillColor=none;align=center;verticalAlign=middle;whiteSpace=wrap;rounded=0;" vertex="1" parent="WIyWlLk6GJQsqaUBKTNV-1">
          <mxGeometry x="610" y="960" width="40" height="20" as="geometry" />
        </mxCell>
        <mxCell id="K_dnV9f0_s6PBJcPADAx-148" value="&lt;b&gt;No&lt;/b&gt;" style="text;whiteSpace=wrap;html=1;" vertex="1" parent="WIyWlLk6GJQsqaUBKTNV-1">
          <mxGeometry x="550" y="955" width="20" height="30" as="geometry" />
        </mxCell>
        <mxCell id="K_dnV9f0_s6PBJcPADAx-149" value="" style="endArrow=none;dashed=1;html=1;strokeColor=#d6b656;strokeWidth=2;align=center;fillColor=#fff2cc;" edge="1" parent="WIyWlLk6GJQsqaUBKTNV-1">
          <mxGeometry width="50" height="50" relative="1" as="geometry">
            <mxPoint x="721" y="910" as="sourcePoint" />
            <mxPoint x="721" y="660" as="targetPoint" />
          </mxGeometry>
        </mxCell>
        <mxCell id="K_dnV9f0_s6PBJcPADAx-150" value="" style="endArrow=none;dashed=1;html=1;strokeColor=#d6b656;strokeWidth=2;align=center;fillColor=#fff2cc;" edge="1" parent="WIyWlLk6GJQsqaUBKTNV-1">
          <mxGeometry width="50" height="50" relative="1" as="geometry">
            <mxPoint x="1239" y="1960" as="sourcePoint" />
            <mxPoint x="1239" y="650" as="targetPoint" />
          </mxGeometry>
        </mxCell>
        <mxCell id="K_dnV9f0_s6PBJcPADAx-152" value="" style="endArrow=none;dashed=1;html=1;strokeWidth=2;align=center;fillColor=#fff2cc;strokeColor=#d6b656;" edge="1" parent="WIyWlLk6GJQsqaUBKTNV-1">
          <mxGeometry width="50" height="50" relative="1" as="geometry">
            <mxPoint x="720" y="650" as="sourcePoint" />
            <mxPoint x="1240" y="650" as="targetPoint" />
          </mxGeometry>
        </mxCell>
        <mxCell id="K_dnV9f0_s6PBJcPADAx-164" value="" style="edgeStyle=orthogonalEdgeStyle;rounded=0;orthogonalLoop=1;jettySize=auto;html=1;startArrow=none;startFill=0;endArrow=block;endFill=1;endSize=6;strokeColor=#000000;strokeWidth=2;fontColor=#000000;align=center;" edge="1" parent="WIyWlLk6GJQsqaUBKTNV-1" source="K_dnV9f0_s6PBJcPADAx-154" target="K_dnV9f0_s6PBJcPADAx-155">
          <mxGeometry relative="1" as="geometry" />
        </mxCell>
        <mxCell id="K_dnV9f0_s6PBJcPADAx-154" value="&lt;div&gt;&lt;b&gt;Available primers &lt;br&gt;&lt;/b&gt;&lt;/div&gt;&lt;div&gt;&lt;b&gt;for the marker&lt;/b&gt;&lt;/div&gt;" style="rounded=1;whiteSpace=wrap;html=1;fontSize=12;glass=0;strokeWidth=2;shadow=0;fillColor=#fff2cc;strokeColor=#d6b656;" vertex="1" parent="WIyWlLk6GJQsqaUBKTNV-1">
          <mxGeometry x="730" y="660" width="140" height="50" as="geometry" />
        </mxCell>
        <mxCell id="K_dnV9f0_s6PBJcPADAx-171" style="edgeStyle=orthogonalEdgeStyle;rounded=0;orthogonalLoop=1;jettySize=auto;html=1;exitX=0.5;exitY=1;exitDx=0;exitDy=0;startArrow=none;startFill=0;endArrow=block;endFill=1;endSize=6;strokeColor=#000000;strokeWidth=2;fontColor=#000000;align=center;" edge="1" parent="WIyWlLk6GJQsqaUBKTNV-1" source="K_dnV9f0_s6PBJcPADAx-155">
          <mxGeometry relative="1" as="geometry">
            <mxPoint x="840" y="840" as="targetPoint" />
            <Array as="points">
              <mxPoint x="800" y="840" />
            </Array>
          </mxGeometry>
        </mxCell>
        <mxCell id="K_dnV9f0_s6PBJcPADAx-155" value="&lt;div&gt;&lt;b&gt;Script #7&lt;/b&gt;&lt;/div&gt;&lt;div&gt;(to update)&lt;br&gt;&lt;b&gt;&lt;/b&gt;&lt;/div&gt;" style="ellipse;whiteSpace=wrap;html=1;strokeWidth=2;" vertex="1" parent="WIyWlLk6GJQsqaUBKTNV-1">
          <mxGeometry x="740" y="745" width="120" height="40" as="geometry" />
        </mxCell>
        <mxCell id="K_dnV9f0_s6PBJcPADAx-157" value="&lt;b&gt;Gap analysis libraries vs PhytObs (Script #4) &lt;/b&gt;" style="edgeLabel;resizable=0;html=1;align=center;verticalAlign=middle;fontStyle=2" connectable="0" vertex="1" parent="WIyWlLk6GJQsqaUBKTNV-1">
          <mxGeometry x="659.9999986159169" y="540.0011764707917" as="geometry" />
        </mxCell>
        <mxCell id="K_dnV9f0_s6PBJcPADAx-158" value="" style="endArrow=none;dashed=1;html=1;strokeWidth=2;align=center;fillColor=#0050ef;strokeColor=#001DBC;" edge="1" parent="WIyWlLk6GJQsqaUBKTNV-1">
          <mxGeometry width="50" height="50" relative="1" as="geometry">
            <mxPoint x="530" y="630" as="sourcePoint" />
            <mxPoint x="1040" y="630" as="targetPoint" />
          </mxGeometry>
        </mxCell>
        <mxCell id="K_dnV9f0_s6PBJcPADAx-159" value="" style="endArrow=none;dashed=1;html=1;strokeWidth=2;align=center;fillColor=#0050ef;strokeColor=#001DBC;" edge="1" parent="WIyWlLk6GJQsqaUBKTNV-1">
          <mxGeometry width="50" height="50" relative="1" as="geometry">
            <mxPoint x="529.5" y="330" as="sourcePoint" />
            <mxPoint x="1040" y="330" as="targetPoint" />
          </mxGeometry>
        </mxCell>
        <mxCell id="K_dnV9f0_s6PBJcPADAx-160" value="" style="endArrow=none;dashed=1;html=1;strokeWidth=2;align=center;fillColor=#0050ef;strokeColor=#001DBC;" edge="1" parent="WIyWlLk6GJQsqaUBKTNV-1">
          <mxGeometry width="50" height="50" relative="1" as="geometry">
            <mxPoint x="530" y="330" as="sourcePoint" />
            <mxPoint x="530" y="630" as="targetPoint" />
          </mxGeometry>
        </mxCell>
        <mxCell id="K_dnV9f0_s6PBJcPADAx-161" value="" style="endArrow=none;dashed=1;html=1;strokeWidth=2;align=center;fillColor=#0050ef;strokeColor=#001DBC;" edge="1" parent="WIyWlLk6GJQsqaUBKTNV-1">
          <mxGeometry width="50" height="50" relative="1" as="geometry">
            <mxPoint x="1040" y="330" as="sourcePoint" />
            <mxPoint x="1040" y="630" as="targetPoint" />
          </mxGeometry>
        </mxCell>
        <mxCell id="K_dnV9f0_s6PBJcPADAx-162" value="&lt;i&gt;See Objectif 2&lt;br&gt;&lt;/i&gt;" style="text;html=1;strokeColor=#001DBC;fillColor=#0050ef;align=center;verticalAlign=middle;whiteSpace=wrap;rounded=0;opacity=60;fontStyle=0" vertex="1" parent="WIyWlLk6GJQsqaUBKTNV-1">
          <mxGeometry x="950" y="600" width="80" height="20" as="geometry" />
        </mxCell>
        <mxCell id="K_dnV9f0_s6PBJcPADAx-187" value="" style="edgeStyle=orthogonalEdgeStyle;rounded=0;orthogonalLoop=1;jettySize=auto;html=1;startArrow=none;startFill=0;endArrow=block;endFill=1;endSize=6;strokeColor=#000000;strokeWidth=2;fontColor=#000000;align=center;" edge="1" parent="WIyWlLk6GJQsqaUBKTNV-1" source="K_dnV9f0_s6PBJcPADAx-165" target="K_dnV9f0_s6PBJcPADAx-186">
          <mxGeometry relative="1" as="geometry" />
        </mxCell>
        <mxCell id="K_dnV9f0_s6PBJcPADAx-196" value="" style="edgeStyle=orthogonalEdgeStyle;rounded=0;orthogonalLoop=1;jettySize=auto;html=1;startArrow=none;startFill=0;endArrow=block;endFill=1;endSize=6;strokeColor=#000000;strokeWidth=2;fontColor=#000000;align=center;" edge="1" parent="WIyWlLk6GJQsqaUBKTNV-1" source="K_dnV9f0_s6PBJcPADAx-165" target="K_dnV9f0_s6PBJcPADAx-195">
          <mxGeometry relative="1" as="geometry">
            <Array as="points">
              <mxPoint x="650" y="1190" />
              <mxPoint x="300" y="1190" />
            </Array>
          </mxGeometry>
        </mxCell>
        <mxCell id="K_dnV9f0_s6PBJcPADAx-165" value="&lt;div&gt;&lt;b&gt;&lt;br&gt;&lt;/b&gt;&lt;/div&gt;&lt;div&gt;&lt;b&gt;Updated&lt;br&gt;&lt;/b&gt;&lt;/div&gt;&lt;div&gt;&lt;b&gt;fasta&lt;/b&gt;&lt;/div&gt;&lt;div&gt;&lt;b&gt;file&lt;br&gt;&lt;/b&gt;&lt;/div&gt;&lt;div&gt;&lt;b&gt;without redondant taxa&lt;/b&gt;&lt;/div&gt;" style="shape=note;whiteSpace=wrap;html=1;backgroundOutline=1;darkOpacity=0.05;strokeWidth=2;size=14;fillColor=#d5e8d4;strokeColor=#82b366;" vertex="1" parent="WIyWlLk6GJQsqaUBKTNV-1">
          <mxGeometry x="610" y="1060" width="80" height="100" as="geometry" />
        </mxCell>
        <mxCell id="K_dnV9f0_s6PBJcPADAx-167" value="&lt;b&gt;&lt;i&gt;in silico &lt;/i&gt;PCR&lt;/b&gt;&lt;br&gt;&lt;i&gt;&lt;/i&gt;" style="text;html=1;strokeColor=none;fillColor=none;align=center;verticalAlign=middle;whiteSpace=wrap;rounded=0;fontColor=#000000;opacity=60;" vertex="1" parent="WIyWlLk6GJQsqaUBKTNV-1">
          <mxGeometry x="875" y="735" width="90" height="60" as="geometry" />
        </mxCell>
        <mxCell id="K_dnV9f0_s6PBJcPADAx-172" value="&lt;div&gt;&lt;b&gt;Results &amp;amp; &lt;i&gt;&lt;br&gt;&lt;/i&gt;&lt;/b&gt;&lt;/div&gt;&lt;div&gt;&lt;b&gt;&lt;i&gt;in silico &lt;/i&gt;amplicons&lt;/b&gt;&lt;/div&gt;" style="text;html=1;strokeColor=none;fillColor=none;align=center;verticalAlign=middle;whiteSpace=wrap;rounded=0;fontColor=#000000;opacity=60;" vertex="1" parent="WIyWlLk6GJQsqaUBKTNV-1">
          <mxGeometry x="845" y="830" width="150" height="20" as="geometry" />
        </mxCell>
        <mxCell id="K_dnV9f0_s6PBJcPADAx-173" style="edgeStyle=orthogonalEdgeStyle;rounded=0;orthogonalLoop=1;jettySize=auto;html=1;exitX=0.5;exitY=1;exitDx=0;exitDy=0;startArrow=none;startFill=0;endArrow=block;endFill=1;endSize=6;strokeColor=#000000;strokeWidth=2;fontColor=#000000;align=center;" edge="1" parent="WIyWlLk6GJQsqaUBKTNV-1" source="K_dnV9f0_s6PBJcPADAx-172" target="K_dnV9f0_s6PBJcPADAx-172">
          <mxGeometry relative="1" as="geometry" />
        </mxCell>
        <mxCell id="K_dnV9f0_s6PBJcPADAx-174" value="&lt;i&gt;For Objectif 3&lt;br&gt;&lt;/i&gt;" style="text;html=1;strokeColor=#d6b656;fillColor=#fff2cc;align=center;verticalAlign=middle;whiteSpace=wrap;rounded=0;opacity=60;fontStyle=0" vertex="1" parent="WIyWlLk6GJQsqaUBKTNV-1">
          <mxGeometry x="1148" y="1890" width="80" height="20" as="geometry" />
        </mxCell>
        <mxCell id="K_dnV9f0_s6PBJcPADAx-175" value="" style="endArrow=none;dashed=1;html=1;dashPattern=1 3;strokeWidth=2;fontColor=#000000;align=center;" edge="1" parent="WIyWlLk6GJQsqaUBKTNV-1">
          <mxGeometry width="50" height="50" relative="1" as="geometry">
            <mxPoint x="160" y="1210" as="sourcePoint" />
            <mxPoint x="1230" y="1210" as="targetPoint" />
          </mxGeometry>
        </mxCell>
        <mxCell id="K_dnV9f0_s6PBJcPADAx-176" value="" style="endArrow=none;dashed=1;html=1;dashPattern=1 3;strokeWidth=2;fontColor=#000000;align=center;" edge="1" parent="WIyWlLk6GJQsqaUBKTNV-1">
          <mxGeometry width="50" height="50" relative="1" as="geometry">
            <mxPoint x="160" y="1920" as="sourcePoint" />
            <mxPoint x="1230" y="1920" as="targetPoint" />
          </mxGeometry>
        </mxCell>
        <mxCell id="K_dnV9f0_s6PBJcPADAx-177" value="" style="endArrow=none;dashed=1;html=1;dashPattern=1 3;strokeWidth=2;fontColor=#000000;align=center;" edge="1" parent="WIyWlLk6GJQsqaUBKTNV-1">
          <mxGeometry width="50" height="50" relative="1" as="geometry">
            <mxPoint x="160" y="1920" as="sourcePoint" />
            <mxPoint x="160" y="1210" as="targetPoint" />
          </mxGeometry>
        </mxCell>
        <mxCell id="K_dnV9f0_s6PBJcPADAx-178" value="&lt;i&gt;Optimizing a new strategy to search and design primers for metabarcoding&lt;/i&gt;" style="text;html=1;align=center;verticalAlign=middle;resizable=0;points=[];autosize=1;fontColor=#000000;" vertex="1" parent="WIyWlLk6GJQsqaUBKTNV-1">
          <mxGeometry x="180" y="1640" width="410" height="20" as="geometry" />
        </mxCell>
        <mxCell id="K_dnV9f0_s6PBJcPADAx-179" value="" style="endArrow=none;dashed=1;html=1;strokeColor=#B20000;strokeWidth=2;fontColor=#000000;align=center;fillColor=#e51400;" edge="1" parent="WIyWlLk6GJQsqaUBKTNV-1">
          <mxGeometry width="50" height="50" relative="1" as="geometry">
            <mxPoint x="720" y="1170" as="sourcePoint" />
            <mxPoint x="720" y="1040" as="targetPoint" />
          </mxGeometry>
        </mxCell>
        <mxCell id="K_dnV9f0_s6PBJcPADAx-180" value="" style="endArrow=none;dashed=1;html=1;strokeColor=#B20000;strokeWidth=2;fontColor=#000000;align=center;fillColor=#e51400;" edge="1" parent="WIyWlLk6GJQsqaUBKTNV-1">
          <mxGeometry width="50" height="50" relative="1" as="geometry">
            <mxPoint x="1200" y="1170" as="sourcePoint" />
            <mxPoint x="1200" y="1040" as="targetPoint" />
          </mxGeometry>
        </mxCell>
        <mxCell id="K_dnV9f0_s6PBJcPADAx-181" value="" style="endArrow=none;dashed=1;html=1;strokeColor=#B20000;strokeWidth=2;fontColor=#000000;align=center;fillColor=#e51400;" edge="1" parent="WIyWlLk6GJQsqaUBKTNV-1">
          <mxGeometry width="50" height="50" relative="1" as="geometry">
            <mxPoint x="1200" y="1040" as="sourcePoint" />
            <mxPoint x="720" y="1040" as="targetPoint" />
          </mxGeometry>
        </mxCell>
        <mxCell id="K_dnV9f0_s6PBJcPADAx-182" value="" style="endArrow=none;dashed=1;html=1;strokeColor=#B20000;strokeWidth=2;fontColor=#000000;align=center;fillColor=#e51400;" edge="1" parent="WIyWlLk6GJQsqaUBKTNV-1">
          <mxGeometry width="50" height="50" relative="1" as="geometry">
            <mxPoint x="1200" y="1168" as="sourcePoint" />
            <mxPoint x="720" y="1168" as="targetPoint" />
          </mxGeometry>
        </mxCell>
        <mxCell id="K_dnV9f0_s6PBJcPADAx-184" value="&lt;font color=&quot;#FF0000&quot;&gt;&lt;i&gt;Classic approach for primer designing (not suitable here)&lt;/i&gt;&lt;/font&gt;" style="text;html=1;align=center;verticalAlign=middle;resizable=0;points=[];autosize=1;fontColor=#000000;" vertex="1" parent="WIyWlLk6GJQsqaUBKTNV-1">
          <mxGeometry x="880" y="1140" width="320" height="20" as="geometry" />
        </mxCell>
        <mxCell id="K_dnV9f0_s6PBJcPADAx-191" value="" style="edgeStyle=orthogonalEdgeStyle;rounded=0;orthogonalLoop=1;jettySize=auto;html=1;startArrow=none;startFill=0;endArrow=block;endFill=1;endSize=6;strokeColor=#000000;strokeWidth=2;fontColor=#000000;align=center;" edge="1" parent="WIyWlLk6GJQsqaUBKTNV-1" source="K_dnV9f0_s6PBJcPADAx-186" target="K_dnV9f0_s6PBJcPADAx-190">
          <mxGeometry relative="1" as="geometry" />
        </mxCell>
        <mxCell id="K_dnV9f0_s6PBJcPADAx-186" value="&lt;div&gt;&lt;b&gt;Multiple Alignment&lt;/b&gt;&lt;br&gt;&lt;/div&gt;" style="ellipse;whiteSpace=wrap;html=1;strokeWidth=2;" vertex="1" parent="WIyWlLk6GJQsqaUBKTNV-1">
          <mxGeometry x="760" y="1090" width="120" height="40" as="geometry" />
        </mxCell>
        <mxCell id="K_dnV9f0_s6PBJcPADAx-190" value="potential primers to test with &lt;i&gt;in silico &lt;/i&gt;PCR" style="rounded=1;whiteSpace=wrap;html=1;strokeWidth=2;opacity=60;" vertex="1" parent="WIyWlLk6GJQsqaUBKTNV-1">
          <mxGeometry x="1040" y="1080" width="120" height="60" as="geometry" />
        </mxCell>
        <mxCell id="K_dnV9f0_s6PBJcPADAx-192" value="&lt;div&gt;check alignments with &lt;br&gt;&lt;/div&gt;&lt;div&gt;softwares such as MEGA&lt;/div&gt;" style="text;html=1;align=center;verticalAlign=middle;resizable=0;points=[];autosize=1;fontColor=#000000;" vertex="1" parent="WIyWlLk6GJQsqaUBKTNV-1">
          <mxGeometry x="880" y="1060" width="150" height="30" as="geometry" />
        </mxCell>
        <mxCell id="K_dnV9f0_s6PBJcPADAx-199" value="" style="edgeStyle=orthogonalEdgeStyle;rounded=0;orthogonalLoop=1;jettySize=auto;html=1;startArrow=none;startFill=0;endArrow=block;endFill=1;endSize=6;strokeColor=#000000;strokeWidth=2;fontColor=#000000;align=center;exitX=1;exitY=0.5;exitDx=0;exitDy=0;" edge="1" parent="WIyWlLk6GJQsqaUBKTNV-1" source="K_dnV9f0_s6PBJcPADAx-195">
          <mxGeometry relative="1" as="geometry">
            <mxPoint x="410" y="1260" as="targetPoint" />
          </mxGeometry>
        </mxCell>
        <mxCell id="K_dnV9f0_s6PBJcPADAx-195" value="&lt;div&gt;&lt;b&gt;Script #8&lt;/b&gt;&lt;br&gt;&lt;b&gt;&lt;/b&gt;&lt;/div&gt;" style="ellipse;whiteSpace=wrap;html=1;strokeWidth=2;" vertex="1" parent="WIyWlLk6GJQsqaUBKTNV-1">
          <mxGeometry x="240" y="1240" width="120" height="40" as="geometry" />
        </mxCell>
        <mxCell id="K_dnV9f0_s6PBJcPADAx-216" value="" style="edgeStyle=orthogonalEdgeStyle;rounded=0;orthogonalLoop=1;jettySize=auto;html=1;startArrow=none;startFill=0;endArrow=none;endFill=0;endSize=6;strokeColor=#000000;strokeWidth=2;fontColor=#000000;align=center;" edge="1" parent="WIyWlLk6GJQsqaUBKTNV-1" source="K_dnV9f0_s6PBJcPADAx-197" target="K_dnV9f0_s6PBJcPADAx-215">
          <mxGeometry relative="1" as="geometry" />
        </mxCell>
        <mxCell id="K_dnV9f0_s6PBJcPADAx-197" value="&lt;div&gt;&lt;b&gt;Script #9&lt;/b&gt;&lt;br&gt;&lt;b&gt;&lt;/b&gt;&lt;/div&gt;" style="ellipse;whiteSpace=wrap;html=1;strokeWidth=2;" vertex="1" parent="WIyWlLk6GJQsqaUBKTNV-1">
          <mxGeometry x="560" y="1240" width="120" height="40" as="geometry" />
        </mxCell>
        <mxCell id="K_dnV9f0_s6PBJcPADAx-200" value="" style="edgeStyle=orthogonalEdgeStyle;rounded=0;orthogonalLoop=1;jettySize=auto;html=1;startArrow=none;startFill=0;endArrow=block;endFill=1;endSize=6;strokeColor=#000000;strokeWidth=2;fontColor=#000000;align=center;exitX=0;exitY=0;exitDx=70;exitDy=47;exitPerimeter=0;" edge="1" parent="WIyWlLk6GJQsqaUBKTNV-1" source="K_dnV9f0_s6PBJcPADAx-198" target="K_dnV9f0_s6PBJcPADAx-197">
          <mxGeometry relative="1" as="geometry">
            <Array as="points">
              <mxPoint x="484" y="1260" />
            </Array>
          </mxGeometry>
        </mxCell>
        <mxCell id="K_dnV9f0_s6PBJcPADAx-198" value="&lt;div&gt;&lt;b&gt;&lt;br&gt;&lt;/b&gt;&lt;/div&gt;&lt;div&gt;&lt;b&gt;Similar sequence lengths &lt;br&gt;&lt;/b&gt;&lt;/div&gt;&lt;div&gt;&lt;b&gt;(in theory)&lt;/b&gt;&lt;/div&gt;" style="shape=note;whiteSpace=wrap;html=1;backgroundOutline=1;darkOpacity=0.05;strokeWidth=2;size=14;fillColor=#d5e8d4;strokeColor=#82b366;" vertex="1" parent="WIyWlLk6GJQsqaUBKTNV-1">
          <mxGeometry x="414" y="1220" width="70" height="80" as="geometry" />
        </mxCell>
        <mxCell id="K_dnV9f0_s6PBJcPADAx-203" value="1" style="shape=note;whiteSpace=wrap;html=1;backgroundOutline=1;darkOpacity=0.05;strokeWidth=2;size=8;" vertex="1" parent="WIyWlLk6GJQsqaUBKTNV-1">
          <mxGeometry x="550" y="1320" width="20" height="30" as="geometry" />
        </mxCell>
        <mxCell id="K_dnV9f0_s6PBJcPADAx-212" value="&lt;font style=&quot;font-size: 18px&quot;&gt;&lt;b&gt;+&amp;nbsp; (...)&amp;nbsp; +&lt;br&gt;&lt;/b&gt;&lt;/font&gt;" style="text;html=1;align=center;verticalAlign=middle;resizable=0;points=[];autosize=1;fontColor=#000000;" vertex="1" parent="WIyWlLk6GJQsqaUBKTNV-1">
          <mxGeometry x="580" y="1325" width="80" height="20" as="geometry" />
        </mxCell>
        <mxCell id="K_dnV9f0_s6PBJcPADAx-214" value="K" style="shape=note;whiteSpace=wrap;html=1;backgroundOutline=1;darkOpacity=0.05;strokeWidth=2;size=8;" vertex="1" parent="WIyWlLk6GJQsqaUBKTNV-1">
          <mxGeometry x="670" y="1320" width="20" height="30" as="geometry" />
        </mxCell>
        <mxCell id="K_dnV9f0_s6PBJcPADAx-215" value="" style="line;strokeWidth=2;html=1;perimeter=backbonePerimeter;points=[];outlineConnect=0;" vertex="1" parent="WIyWlLk6GJQsqaUBKTNV-1">
          <mxGeometry x="558.75" y="1300" width="122.5" height="10" as="geometry" />
        </mxCell>
        <mxCell id="K_dnV9f0_s6PBJcPADAx-220" value="" style="line;strokeWidth=2;direction=south;html=1;fillColor=#ffffff;gradientColor=#ffffff;fontColor=#000000;" vertex="1" parent="WIyWlLk6GJQsqaUBKTNV-1">
          <mxGeometry x="554" y="1305" width="10" height="5" as="geometry" />
        </mxCell>
        <mxCell id="K_dnV9f0_s6PBJcPADAx-221" value="" style="line;strokeWidth=2;direction=south;html=1;fillColor=#ffffff;gradientColor=#ffffff;fontColor=#000000;" vertex="1" parent="WIyWlLk6GJQsqaUBKTNV-1">
          <mxGeometry x="615" y="1305" width="10" height="5" as="geometry" />
        </mxCell>
        <mxCell id="K_dnV9f0_s6PBJcPADAx-222" value="" style="line;strokeWidth=2;direction=south;html=1;fillColor=#ffffff;gradientColor=#ffffff;fontColor=#000000;" vertex="1" parent="WIyWlLk6GJQsqaUBKTNV-1">
          <mxGeometry x="675" y="1306" width="10" height="5" as="geometry" />
        </mxCell>
        <mxCell id="K_dnV9f0_s6PBJcPADAx-244" value="" style="edgeStyle=orthogonalEdgeStyle;rounded=0;orthogonalLoop=1;jettySize=auto;html=1;startArrow=none;startFill=0;endArrow=block;endFill=1;endSize=6;strokeColor=#000000;strokeWidth=2;fontColor=#000000;align=center;" edge="1" parent="WIyWlLk6GJQsqaUBKTNV-1" source="K_dnV9f0_s6PBJcPADAx-224" target="K_dnV9f0_s6PBJcPADAx-243">
          <mxGeometry relative="1" as="geometry" />
        </mxCell>
        <mxCell id="K_dnV9f0_s6PBJcPADAx-224" value="&lt;div&gt;&lt;b&gt;Script #10&lt;/b&gt;&lt;br&gt;&lt;b&gt;&lt;/b&gt;&lt;/div&gt;" style="ellipse;whiteSpace=wrap;html=1;strokeWidth=2;" vertex="1" parent="WIyWlLk6GJQsqaUBKTNV-1">
          <mxGeometry x="560" y="1430" width="120" height="40" as="geometry" />
        </mxCell>
        <mxCell id="K_dnV9f0_s6PBJcPADAx-225" value="&lt;div&gt;&lt;b&gt;K fasta files of&lt;/b&gt;&lt;/div&gt;&lt;div&gt;&lt;b&gt; N random sequences&lt;br&gt;&lt;/b&gt;&lt;/div&gt;" style="text;html=1;align=center;verticalAlign=middle;resizable=0;points=[];autosize=1;fontColor=#000000;" vertex="1" parent="WIyWlLk6GJQsqaUBKTNV-1">
          <mxGeometry x="702" y="1320" width="140" height="30" as="geometry" />
        </mxCell>
        <mxCell id="K_dnV9f0_s6PBJcPADAx-242" value="" style="edgeStyle=orthogonalEdgeStyle;rounded=0;orthogonalLoop=1;jettySize=auto;html=1;startArrow=none;startFill=0;endArrow=block;endFill=1;endSize=6;strokeColor=#000000;strokeWidth=2;fontColor=#000000;align=center;" edge="1" parent="WIyWlLk6GJQsqaUBKTNV-1" source="K_dnV9f0_s6PBJcPADAx-240" target="K_dnV9f0_s6PBJcPADAx-224">
          <mxGeometry relative="1" as="geometry" />
        </mxCell>
        <mxCell id="K_dnV9f0_s6PBJcPADAx-240" value="&lt;div&gt;Multiple alignments of each files (muscle)&lt;/div&gt;&lt;div&gt;(include in Script #9)&lt;br&gt;&lt;/div&gt;" style="text;html=1;align=center;verticalAlign=middle;resizable=0;points=[];autosize=1;fontColor=#000000;fontStyle=1" vertex="1" parent="WIyWlLk6GJQsqaUBKTNV-1">
          <mxGeometry x="495" y="1370" width="250" height="30" as="geometry" />
        </mxCell>
        <mxCell id="K_dnV9f0_s6PBJcPADAx-248" value="" style="edgeStyle=orthogonalEdgeStyle;rounded=0;orthogonalLoop=1;jettySize=auto;html=1;startArrow=none;startFill=0;endArrow=block;endFill=1;endSize=6;strokeColor=#000000;strokeWidth=2;fontColor=#000000;align=center;" edge="1" parent="WIyWlLk6GJQsqaUBKTNV-1" source="K_dnV9f0_s6PBJcPADAx-243" target="K_dnV9f0_s6PBJcPADAx-246">
          <mxGeometry relative="1" as="geometry" />
        </mxCell>
        <mxCell id="K_dnV9f0_s6PBJcPADAx-243" value="&lt;div&gt;&lt;b&gt;&lt;br&gt;&lt;/b&gt;&lt;/div&gt;&lt;div&gt;&lt;b&gt;Common output to all files : list of candidate primers&lt;/b&gt;&lt;/div&gt;" style="shape=note;whiteSpace=wrap;html=1;backgroundOutline=1;darkOpacity=0.05;strokeWidth=2;size=17;" vertex="1" parent="WIyWlLk6GJQsqaUBKTNV-1">
          <mxGeometry x="780" y="1400" width="80" height="100" as="geometry" />
        </mxCell>
        <mxCell id="K_dnV9f0_s6PBJcPADAx-253" value="" style="edgeStyle=orthogonalEdgeStyle;rounded=0;orthogonalLoop=1;jettySize=auto;html=1;startArrow=none;startFill=0;endArrow=block;endFill=1;endSize=6;strokeColor=#000000;strokeWidth=2;fontColor=#000000;align=center;" edge="1" parent="WIyWlLk6GJQsqaUBKTNV-1" source="K_dnV9f0_s6PBJcPADAx-246" target="K_dnV9f0_s6PBJcPADAx-252">
          <mxGeometry relative="1" as="geometry" />
        </mxCell>
        <mxCell id="K_dnV9f0_s6PBJcPADAx-246" value="&lt;div&gt;&lt;b&gt;Script #11&lt;/b&gt;&lt;br&gt;&lt;b&gt;&lt;/b&gt;&lt;/div&gt;" style="ellipse;whiteSpace=wrap;html=1;strokeWidth=2;" vertex="1" parent="WIyWlLk6GJQsqaUBKTNV-1">
          <mxGeometry x="760" y="1550" width="120" height="40" as="geometry" />
        </mxCell>
        <mxCell id="K_dnV9f0_s6PBJcPADAx-249" value="" style="endArrow=none;dashed=1;html=1;strokeWidth=2;align=center;fillColor=#fff2cc;strokeColor=#d6b656;" edge="1" parent="WIyWlLk6GJQsqaUBKTNV-1">
          <mxGeometry width="50" height="50" relative="1" as="geometry">
            <mxPoint x="120" y="1000" as="sourcePoint" />
            <mxPoint x="120" y="1960" as="targetPoint" />
          </mxGeometry>
        </mxCell>
        <mxCell id="K_dnV9f0_s6PBJcPADAx-250" value="&lt;div&gt;&lt;b&gt;Script #7&lt;/b&gt;&lt;/div&gt;&lt;div&gt;(to update)&lt;br&gt;&lt;b&gt;&lt;/b&gt;&lt;/div&gt;" style="ellipse;whiteSpace=wrap;html=1;strokeWidth=2;" vertex="1" parent="WIyWlLk6GJQsqaUBKTNV-1">
          <mxGeometry x="905" y="1655" width="120" height="40" as="geometry" />
        </mxCell>
        <mxCell id="K_dnV9f0_s6PBJcPADAx-251" value="&lt;b&gt;&lt;i&gt;in silico &lt;/i&gt;PCR&lt;/b&gt;&lt;br&gt;&lt;i&gt;&lt;/i&gt;" style="text;html=1;strokeColor=none;fillColor=none;align=center;verticalAlign=middle;whiteSpace=wrap;rounded=0;fontColor=#000000;opacity=60;" vertex="1" parent="WIyWlLk6GJQsqaUBKTNV-1">
          <mxGeometry x="1040" y="1645" width="90" height="60" as="geometry" />
        </mxCell>
        <mxCell id="K_dnV9f0_s6PBJcPADAx-254" value="" style="edgeStyle=orthogonalEdgeStyle;rounded=0;orthogonalLoop=1;jettySize=auto;html=1;startArrow=none;startFill=0;endArrow=block;endFill=1;endSize=6;strokeColor=#000000;strokeWidth=2;fontColor=#000000;align=center;" edge="1" parent="WIyWlLk6GJQsqaUBKTNV-1" source="K_dnV9f0_s6PBJcPADAx-252" target="K_dnV9f0_s6PBJcPADAx-250">
          <mxGeometry relative="1" as="geometry" />
        </mxCell>
        <mxCell id="K_dnV9f0_s6PBJcPADAx-252" value="&lt;div&gt;&lt;b&gt;&lt;br&gt;&lt;/b&gt;&lt;/div&gt;&lt;div&gt;&lt;b&gt;List of potential good &lt;br&gt;&lt;/b&gt;&lt;/div&gt;&lt;div&gt;&lt;b&gt;primers to test&lt;br&gt;&lt;/b&gt;&lt;/div&gt;" style="shape=note;whiteSpace=wrap;html=1;backgroundOutline=1;darkOpacity=0.05;strokeWidth=2;size=17;" vertex="1" parent="WIyWlLk6GJQsqaUBKTNV-1">
          <mxGeometry x="781" y="1630" width="78" height="90" as="geometry" />
        </mxCell>
        <mxCell id="K_dnV9f0_s6PBJcPADAx-255" style="edgeStyle=orthogonalEdgeStyle;rounded=0;orthogonalLoop=1;jettySize=auto;html=1;exitX=0.5;exitY=1;exitDx=0;exitDy=0;startArrow=none;startFill=0;endArrow=block;endFill=1;endSize=6;strokeColor=#000000;strokeWidth=2;fontColor=#000000;align=center;" edge="1" parent="WIyWlLk6GJQsqaUBKTNV-1">
          <mxGeometry relative="1" as="geometry">
            <mxPoint x="1005" y="1750" as="targetPoint" />
            <mxPoint x="965" y="1695" as="sourcePoint" />
            <Array as="points">
              <mxPoint x="965" y="1750" />
            </Array>
          </mxGeometry>
        </mxCell>
        <mxCell id="K_dnV9f0_s6PBJcPADAx-260" value="" style="edgeStyle=orthogonalEdgeStyle;rounded=0;orthogonalLoop=1;jettySize=auto;html=1;startArrow=none;startFill=0;endArrow=block;endFill=1;endSize=6;strokeColor=#000000;strokeWidth=2;fontColor=#000000;align=center;" edge="1" parent="WIyWlLk6GJQsqaUBKTNV-1" source="K_dnV9f0_s6PBJcPADAx-258" target="K_dnV9f0_s6PBJcPADAx-259">
          <mxGeometry relative="1" as="geometry" />
        </mxCell>
        <mxCell id="K_dnV9f0_s6PBJcPADAx-258" value="&lt;div&gt;&lt;b&gt;&lt;i&gt;in silico&lt;/i&gt;&lt;/b&gt;&lt;/div&gt;&lt;div&gt;&lt;b&gt;amplicons&lt;/b&gt;&lt;br&gt;&lt;i&gt;&lt;/i&gt;&lt;/div&gt;" style="shape=note;whiteSpace=wrap;html=1;backgroundOutline=1;darkOpacity=0.05;strokeWidth=2;size=17;" vertex="1" parent="WIyWlLk6GJQsqaUBKTNV-1">
          <mxGeometry x="1005" y="1716" width="70" height="75" as="geometry" />
        </mxCell>
        <mxCell id="K_dnV9f0_s6PBJcPADAx-265" value="" style="edgeStyle=orthogonalEdgeStyle;rounded=0;orthogonalLoop=1;jettySize=auto;html=1;startArrow=none;startFill=0;endArrow=block;endFill=1;endSize=6;strokeColor=#000000;strokeWidth=2;fontColor=#000000;align=center;" edge="1" parent="WIyWlLk6GJQsqaUBKTNV-1" source="K_dnV9f0_s6PBJcPADAx-259" target="K_dnV9f0_s6PBJcPADAx-263">
          <mxGeometry relative="1" as="geometry" />
        </mxCell>
        <mxCell id="K_dnV9f0_s6PBJcPADAx-259" value="&lt;div&gt;&lt;b&gt;Script #12&lt;/b&gt;&lt;br&gt;&lt;b&gt;&lt;/b&gt;&lt;/div&gt;" style="ellipse;whiteSpace=wrap;html=1;strokeWidth=2;" vertex="1" parent="WIyWlLk6GJQsqaUBKTNV-1">
          <mxGeometry x="980" y="1830" width="120" height="40" as="geometry" />
        </mxCell>
        <mxCell id="K_dnV9f0_s6PBJcPADAx-263" value="Check primers coverage" style="text;html=1;strokeColor=none;fillColor=none;align=center;verticalAlign=middle;whiteSpace=wrap;rounded=0;fontColor=#000000;opacity=60;fontStyle=1" vertex="1" parent="WIyWlLk6GJQsqaUBKTNV-1">
          <mxGeometry x="1130" y="1820" width="90" height="60" as="geometry" />
        </mxCell>
        <mxCell id="K_dnV9f0_s6PBJcPADAx-266" value="" style="endArrow=none;dashed=1;html=1;dashPattern=1 3;strokeWidth=2;fontColor=#000000;align=center;" edge="1" parent="WIyWlLk6GJQsqaUBKTNV-1">
          <mxGeometry width="50" height="50" relative="1" as="geometry">
            <mxPoint x="1229.9999999999998" y="1920" as="sourcePoint" />
            <mxPoint x="1229.9999999999998" y="1210" as="targetPoint" />
          </mxGeometry>
        </mxCell>
        <mxCell id="K_dnV9f0_s6PBJcPADAx-267" value="" style="endArrow=none;dashed=1;html=1;strokeWidth=2;align=center;fillColor=#fff2cc;strokeColor=#d6b656;" edge="1" parent="WIyWlLk6GJQsqaUBKTNV-1">
          <mxGeometry width="50" height="50" relative="1" as="geometry">
            <mxPoint x="1240" y="1960" as="sourcePoint" />
            <mxPoint x="120" y="1960" as="targetPoint" />
          </mxGeometry>
        </mxCell>
      </root>
    </mxGraphModel>
  </diagram>
</mxfile>
